<svg xmlns="http://www.w3.org/2000/svg" version="1.1" viewBox="-5.0 -10.0 110.0 135.0">
 <path d="m34.762 36.32 0.78516-0.78516 4.1602 9.6016-9.6016-4.1562 0.77734-0.78125c0.21094-0.20703 0.33203-0.49219 0.33203-0.78906 0-0.29297-0.12109-0.57812-0.33203-0.78516l-7.75-7.7578h4.6055l5.4531 5.4531c0.43359 0.43359 1.1367 0.43359 1.5703 0zm9.7656-1.918-5.6445 3.2578 3.9766 9.1719c0.17578 0.41797 0.082031 0.90234-0.23828 1.2266-0.20703 0.21094-0.48828 0.32812-0.78516 0.32812-0.15234 0-0.30078-0.03125-0.4375-0.09375l-11.957-5.1797-6.2617 3.625 26.375 15.219 26.367-15.219-6.2656-3.6211-11.949 5.1758c-0.41797 0.18359-0.90625 0.089843-1.2305-0.23047-0.32422-0.32422-0.41797-0.80859-0.23828-1.2305l3.9727-9.1719-5.6445-3.2578-3.9844 10.09c-0.16797 0.42187-0.57422 0.69922-1.0312 0.69922-0.45312 0-0.86328-0.27734-1.0312-0.69922zm6.6523-12.719v8.5352c0 0.61328 0.49609 1.1094 1.1094 1.1094h1.1094l-3.8438 9.7305-3.8555-9.7305h1.1133c0.61328 0 1.1094-0.49609 1.1094-1.1094v-8.5352zm-7.0742-16.816 5.1914-0.011719 2.5977 2.168 2.3594 1.9766-0.19922 10.465h-9.9492zm19.453 30.672 0.77734 0.78516 0.003906-0.003907c0.43359 0.43359 1.1367 0.43359 1.5703 0l5.6016-5.6016h4.6133l-7.9062 7.9141c-0.21484 0.20703-0.33203 0.48828-0.33203 0.78516s0.11719 0.57812 0.33203 0.78516l0.77734 0.78125-9.5938 4.1602 4.1602-9.6016zm7.1797-21.645 5.1914-0.011719 2.5977 2.1758 2.3594 1.9766-0.19922 10.469-9.9492-0.003906zm-20.074 80.441v-30.453l26.367-15.227v30.453zm-28.598-45.684 26.379 15.23v30.453l-26.379-15.227zm-2.9688-34.605 5.1836-0.011719 2.6094 2.1758 2.3594 1.9766-0.21094 10.469-9.9414-0.003906zm12.145 15.734 0.23047-12.086c0.007813-0.33594-0.13672-0.65625-0.39453-0.875l-2.7695-2.3164-2.9258-2.4297c-0.19922-0.16797-0.44922-0.25781-0.70703-0.25781l-6.6914 0.019532v-0.003907c-0.29688 0-0.57812 0.12109-0.78516 0.32812-0.20703 0.21094-0.32422 0.49219-0.32031 0.78906v16.809c0 0.61328 0.49609 1.1094 1.1094 1.1133h2l8.543 8.543-1.1562 1.1523v-0.003906c-0.26172 0.26172-0.37891 0.63281-0.30859 0.99609 0.023438 0.10156 0.058594 0.20312 0.10547 0.29688l-6.7734 3.9141c-0.33984 0.19922-0.55078 0.56641-0.55078 0.96094v33.02c0 0.39453 0.21094 0.76172 0.55078 0.96094l28.598 16.512c0.17188 0.09375 0.36328 0.14453 0.55859 0.14453 0.19141 0 0.38281-0.050782 0.55078-0.14453l28.594-16.512c0.34375-0.19922 0.55859-0.5625 0.5625-0.96094v-33.012c-0.003907-0.39844-0.21484-0.76562-0.5625-0.96484l-6.7812-3.9141h0.003906c0.050781-0.089844 0.085937-0.19141 0.10547-0.29688 0.070312-0.36328-0.046875-0.73438-0.30859-0.99219l-1.1523-1.1523 8.6953-8.6992h2.5078c0.60547 0.003906 1.0977-0.48047 1.1055-1.0859l0.24609-12.09c0.003906-0.33594-0.14453-0.65625-0.40234-0.87109l-2.7695-2.3164-2.918-2.4297c-0.19922-0.16406-0.44922-0.25391-0.70703-0.25391h-0.007813l-6.6914 0.015625c-0.61328 0-1.1094 0.49609-1.1094 1.1094v16.812c-0.003906 0.26172 0.089844 0.51172 0.26172 0.71094l-3.6523 3.6484-1.1562-1.1523h-0.003906c-0.25781-0.26172-0.62891-0.375-0.98828-0.30469-0.36328 0.066406-0.66406 0.30859-0.80859 0.64844l-1.0625 2.4492-5.707-3.293 0.66406-1.6836c0.13672-0.34375 0.09375-0.73047-0.11328-1.0352-0.20312-0.30469-0.55078-0.48438-0.91797-0.48438h-1.6328v-7.4297h1.7383c0.60547 0 1.1016-0.48047 1.1172-1.0859l0.23438-12.086h0.003907c0.003906-0.33984-0.14453-0.66016-0.40234-0.875l-2.7695-2.3164-2.918-2.4297c-0.19922-0.16406-0.44922-0.25781-0.70703-0.25781h-0.011718l-6.6914 0.015626c-0.61328 0.003906-1.1094 0.5-1.1094 1.1133v16.816c0 0.60938 0.49609 1.1055 1.1094 1.1055h2.707v7.4258h-1.6328c-0.36719 0-0.71094 0.18359-0.91406 0.48438-0.20312 0.30859-0.24609 0.69141-0.11719 1.0352l0.66406 1.6836-5.6992 3.2969-1.0508-2.4531v0.003906c-0.14844-0.33984-0.45312-0.58203-0.81641-0.65234-0.35937-0.066406-0.73437 0.046876-0.99219 0.30859l-1.1523 1.1523-3.2656-3.2656c0.31641-0.19922 0.51172-0.54688 0.51953-0.92188z" fill-rule="evenodd"/>
<text x="0.0" y="117.5" font-size="5.0" font-weight="bold" font-family="Arbeit Regular, Helvetica, Arial-Unicode, Arial, Sans-serif" fill="#000000">Created by khoirunnisa</text><text x="0.0" y="122.5" font-size="5.0" font-weight="bold" font-family="Arbeit Regular, Helvetica, Arial-Unicode, Arial, Sans-serif" fill="#000000">from Noun Project</text></svg>